<mxfile host="app.diagrams.net" modified="2024-04-16T18:11:24.189Z" agent="Mozilla/5.0 (X11; Ubuntu; Linux x86_64; rv:123.0) Gecko/20100101 Firefox/123.0" etag="yNxNJaRuxBZRamvGjq8r" version="24.2.5" type="github">
  <diagram name="Page-1" id="AmtjGHkQkYa9CfD1JUIu">
    <mxGraphModel dx="1640" dy="1335" grid="1" gridSize="10" guides="1" tooltips="1" connect="1" arrows="1" fold="1" page="0" pageScale="1" pageWidth="850" pageHeight="1100" math="0" shadow="0">
      <root>
        <mxCell id="0" />
        <mxCell id="1" parent="0" />
        <mxCell id="hNDmYx2iGcgmjt5Hm5wT-1" style="edgeStyle=orthogonalEdgeStyle;rounded=0;orthogonalLoop=1;jettySize=auto;html=1;" edge="1" parent="1" source="hNDmYx2iGcgmjt5Hm5wT-2" target="hNDmYx2iGcgmjt5Hm5wT-4">
          <mxGeometry relative="1" as="geometry" />
        </mxCell>
        <mxCell id="hNDmYx2iGcgmjt5Hm5wT-2" value="Start The&lt;br&gt;Rx" style="rounded=1;whiteSpace=wrap;html=1;arcSize=50;" vertex="1" parent="1">
          <mxGeometry x="-393" y="-161" width="120" height="60" as="geometry" />
        </mxCell>
        <mxCell id="hNDmYx2iGcgmjt5Hm5wT-3" style="edgeStyle=orthogonalEdgeStyle;rounded=0;orthogonalLoop=1;jettySize=auto;html=1;entryX=0.5;entryY=0;entryDx=0;entryDy=0;" edge="1" parent="1" source="hNDmYx2iGcgmjt5Hm5wT-4" target="hNDmYx2iGcgmjt5Hm5wT-9">
          <mxGeometry relative="1" as="geometry" />
        </mxCell>
        <mxCell id="hNDmYx2iGcgmjt5Hm5wT-4" value="Take Private Key &lt;br&gt;path" style="shape=parallelogram;perimeter=parallelogramPerimeter;whiteSpace=wrap;html=1;fixedSize=1;" vertex="1" parent="1">
          <mxGeometry x="-393" y="-61" width="120" height="60" as="geometry" />
        </mxCell>
        <mxCell id="hNDmYx2iGcgmjt5Hm5wT-5" style="edgeStyle=orthogonalEdgeStyle;rounded=0;orthogonalLoop=1;jettySize=auto;html=1;" edge="1" parent="1" source="hNDmYx2iGcgmjt5Hm5wT-9" target="hNDmYx2iGcgmjt5Hm5wT-12">
          <mxGeometry relative="1" as="geometry">
            <mxPoint x="-133" y="79" as="targetPoint" />
          </mxGeometry>
        </mxCell>
        <mxCell id="hNDmYx2iGcgmjt5Hm5wT-6" value="No" style="edgeLabel;html=1;align=center;verticalAlign=middle;resizable=0;points=[];" vertex="1" connectable="0" parent="hNDmYx2iGcgmjt5Hm5wT-5">
          <mxGeometry x="-0.0462" y="1" relative="1" as="geometry">
            <mxPoint as="offset" />
          </mxGeometry>
        </mxCell>
        <mxCell id="hNDmYx2iGcgmjt5Hm5wT-7" style="edgeStyle=orthogonalEdgeStyle;rounded=0;orthogonalLoop=1;jettySize=auto;html=1;" edge="1" parent="1" source="hNDmYx2iGcgmjt5Hm5wT-9" target="hNDmYx2iGcgmjt5Hm5wT-13">
          <mxGeometry relative="1" as="geometry" />
        </mxCell>
        <mxCell id="hNDmYx2iGcgmjt5Hm5wT-8" value="Yes" style="edgeLabel;html=1;align=center;verticalAlign=middle;resizable=0;points=[];" vertex="1" connectable="0" parent="hNDmYx2iGcgmjt5Hm5wT-7">
          <mxGeometry x="-0.05" y="2" relative="1" as="geometry">
            <mxPoint as="offset" />
          </mxGeometry>
        </mxCell>
        <mxCell id="hNDmYx2iGcgmjt5Hm5wT-9" value="&lt;div&gt;Check if&amp;nbsp;&lt;/div&gt;&lt;div&gt;the file&amp;nbsp;&lt;/div&gt;&lt;div&gt;exists&lt;/div&gt;" style="rhombus;whiteSpace=wrap;html=1;" vertex="1" parent="1">
          <mxGeometry x="-383" y="29" width="100" height="100" as="geometry" />
        </mxCell>
        <mxCell id="hNDmYx2iGcgmjt5Hm5wT-10" value="Stop" style="rounded=1;whiteSpace=wrap;html=1;arcSize=50;" vertex="1" parent="1">
          <mxGeometry x="77" y="49" width="120" height="60" as="geometry" />
        </mxCell>
        <mxCell id="hNDmYx2iGcgmjt5Hm5wT-11" style="edgeStyle=orthogonalEdgeStyle;rounded=0;orthogonalLoop=1;jettySize=auto;html=1;entryX=0;entryY=0.5;entryDx=0;entryDy=0;" edge="1" parent="1" source="hNDmYx2iGcgmjt5Hm5wT-12" target="hNDmYx2iGcgmjt5Hm5wT-10">
          <mxGeometry relative="1" as="geometry" />
        </mxCell>
        <mxCell id="hNDmYx2iGcgmjt5Hm5wT-12" value="Show error&lt;br&gt;message&lt;br&gt;for file not found" style="shape=parallelogram;perimeter=parallelogramPerimeter;whiteSpace=wrap;html=1;fixedSize=1;" vertex="1" parent="1">
          <mxGeometry x="-128" y="49" width="120" height="60" as="geometry" />
        </mxCell>
        <mxCell id="hNDmYx2iGcgmjt5Hm5wT-13" value="Start Listening on a new socket at 5000 on the host and bind it" style="rounded=0;whiteSpace=wrap;html=1;" vertex="1" parent="1">
          <mxGeometry x="-401.5" y="171" width="137" height="60" as="geometry" />
        </mxCell>
        <mxCell id="hNDmYx2iGcgmjt5Hm5wT-17" style="edgeStyle=none;curved=1;rounded=0;orthogonalLoop=1;jettySize=auto;html=1;entryX=0.5;entryY=1;entryDx=0;entryDy=0;fontSize=12;startSize=8;endSize=8;" edge="1" parent="1" source="hNDmYx2iGcgmjt5Hm5wT-16" target="hNDmYx2iGcgmjt5Hm5wT-13">
          <mxGeometry relative="1" as="geometry" />
        </mxCell>
        <mxCell id="hNDmYx2iGcgmjt5Hm5wT-18" style="edgeStyle=orthogonalEdgeStyle;rounded=0;orthogonalLoop=1;jettySize=auto;html=1;fontSize=12;startSize=8;endSize=8;" edge="1" parent="1" source="hNDmYx2iGcgmjt5Hm5wT-16">
          <mxGeometry relative="1" as="geometry">
            <mxPoint x="-333" y="250" as="targetPoint" />
            <Array as="points">
              <mxPoint x="-180" y="336" />
              <mxPoint x="-180" y="250" />
              <mxPoint x="-330" y="250" />
            </Array>
          </mxGeometry>
        </mxCell>
        <mxCell id="hNDmYx2iGcgmjt5Hm5wT-21" value="No" style="edgeLabel;html=1;align=center;verticalAlign=middle;resizable=0;points=[];" vertex="1" connectable="0" parent="hNDmYx2iGcgmjt5Hm5wT-18">
          <mxGeometry x="-0.1879" y="-2" relative="1" as="geometry">
            <mxPoint as="offset" />
          </mxGeometry>
        </mxCell>
        <mxCell id="hNDmYx2iGcgmjt5Hm5wT-19" style="edgeStyle=orthogonalEdgeStyle;rounded=0;orthogonalLoop=1;jettySize=auto;html=1;" edge="1" parent="1" source="hNDmYx2iGcgmjt5Hm5wT-16">
          <mxGeometry relative="1" as="geometry">
            <mxPoint x="-333" y="480" as="targetPoint" />
          </mxGeometry>
        </mxCell>
        <mxCell id="hNDmYx2iGcgmjt5Hm5wT-20" value="Yes" style="edgeLabel;html=1;align=center;verticalAlign=middle;resizable=0;points=[];" vertex="1" connectable="0" parent="hNDmYx2iGcgmjt5Hm5wT-19">
          <mxGeometry x="0.0835" y="1" relative="1" as="geometry">
            <mxPoint as="offset" />
          </mxGeometry>
        </mxCell>
        <mxCell id="hNDmYx2iGcgmjt5Hm5wT-16" value="Is there a connection listening to this port" style="rhombus;whiteSpace=wrap;html=1;" vertex="1" parent="1">
          <mxGeometry x="-399.5" y="269" width="133" height="134" as="geometry" />
        </mxCell>
        <mxCell id="hNDmYx2iGcgmjt5Hm5wT-24" style="edgeStyle=orthogonalEdgeStyle;rounded=0;orthogonalLoop=1;jettySize=auto;html=1;" edge="1" parent="1" source="hNDmYx2iGcgmjt5Hm5wT-23" target="hNDmYx2iGcgmjt5Hm5wT-10">
          <mxGeometry relative="1" as="geometry" />
        </mxCell>
        <mxCell id="hNDmYx2iGcgmjt5Hm5wT-34" value="Yes" style="edgeLabel;html=1;align=center;verticalAlign=middle;resizable=0;points=[];" vertex="1" connectable="0" parent="hNDmYx2iGcgmjt5Hm5wT-24">
          <mxGeometry x="0.1502" relative="1" as="geometry">
            <mxPoint as="offset" />
          </mxGeometry>
        </mxCell>
        <mxCell id="hNDmYx2iGcgmjt5Hm5wT-31" value="" style="edgeStyle=orthogonalEdgeStyle;rounded=0;orthogonalLoop=1;jettySize=auto;html=1;" edge="1" parent="1" source="hNDmYx2iGcgmjt5Hm5wT-23" target="hNDmYx2iGcgmjt5Hm5wT-30">
          <mxGeometry relative="1" as="geometry" />
        </mxCell>
        <mxCell id="hNDmYx2iGcgmjt5Hm5wT-23" value="Is the connection&lt;br&gt;disconnected?" style="rhombus;whiteSpace=wrap;html=1;" vertex="1" parent="1">
          <mxGeometry x="77" y="220" width="120" height="129" as="geometry" />
        </mxCell>
        <mxCell id="hNDmYx2iGcgmjt5Hm5wT-28" style="edgeStyle=orthogonalEdgeStyle;rounded=0;orthogonalLoop=1;jettySize=auto;html=1;" edge="1" parent="1" source="hNDmYx2iGcgmjt5Hm5wT-27" target="hNDmYx2iGcgmjt5Hm5wT-23">
          <mxGeometry relative="1" as="geometry" />
        </mxCell>
        <mxCell id="hNDmYx2iGcgmjt5Hm5wT-29" value="No" style="edgeLabel;html=1;align=center;verticalAlign=middle;resizable=0;points=[];" vertex="1" connectable="0" parent="hNDmYx2iGcgmjt5Hm5wT-28">
          <mxGeometry x="-0.2901" y="2" relative="1" as="geometry">
            <mxPoint as="offset" />
          </mxGeometry>
        </mxCell>
        <mxCell id="hNDmYx2iGcgmjt5Hm5wT-35" style="edgeStyle=orthogonalEdgeStyle;rounded=0;orthogonalLoop=1;jettySize=auto;html=1;entryX=0.5;entryY=0;entryDx=0;entryDy=0;" edge="1" parent="1" source="hNDmYx2iGcgmjt5Hm5wT-27" target="hNDmYx2iGcgmjt5Hm5wT-37">
          <mxGeometry relative="1" as="geometry">
            <mxPoint x="-332.9999999999998" y="680" as="targetPoint" />
          </mxGeometry>
        </mxCell>
        <mxCell id="hNDmYx2iGcgmjt5Hm5wT-36" value="Yes" style="edgeLabel;html=1;align=center;verticalAlign=middle;resizable=0;points=[];" vertex="1" connectable="0" parent="hNDmYx2iGcgmjt5Hm5wT-35">
          <mxGeometry x="-0.1609" relative="1" as="geometry">
            <mxPoint as="offset" />
          </mxGeometry>
        </mxCell>
        <mxCell id="hNDmYx2iGcgmjt5Hm5wT-27" value="is there a message&lt;br&gt;from a connection?" style="rhombus;whiteSpace=wrap;html=1;" vertex="1" parent="1">
          <mxGeometry x="-405.25" y="480" width="144.5" height="130" as="geometry" />
        </mxCell>
        <mxCell id="hNDmYx2iGcgmjt5Hm5wT-32" style="edgeStyle=orthogonalEdgeStyle;rounded=0;orthogonalLoop=1;jettySize=auto;html=1;" edge="1" parent="1" source="hNDmYx2iGcgmjt5Hm5wT-30">
          <mxGeometry relative="1" as="geometry">
            <mxPoint x="-330" y="430" as="targetPoint" />
            <Array as="points">
              <mxPoint y="286" />
              <mxPoint y="430" />
            </Array>
          </mxGeometry>
        </mxCell>
        <mxCell id="hNDmYx2iGcgmjt5Hm5wT-33" value="No" style="edgeLabel;html=1;align=center;verticalAlign=middle;resizable=0;points=[];" vertex="1" connectable="0" parent="hNDmYx2iGcgmjt5Hm5wT-32">
          <mxGeometry x="0.0813" y="2" relative="1" as="geometry">
            <mxPoint as="offset" />
          </mxGeometry>
        </mxCell>
        <mxCell id="hNDmYx2iGcgmjt5Hm5wT-30" value="Is the connection&lt;br&gt;disconnected?" style="rhombus;whiteSpace=wrap;html=1;" vertex="1" parent="1">
          <mxGeometry x="77" y="221" width="120" height="129" as="geometry" />
        </mxCell>
        <mxCell id="hNDmYx2iGcgmjt5Hm5wT-39" style="edgeStyle=orthogonalEdgeStyle;rounded=0;orthogonalLoop=1;jettySize=auto;html=1;entryX=0;entryY=0.5;entryDx=0;entryDy=0;" edge="1" parent="1" source="hNDmYx2iGcgmjt5Hm5wT-37" target="hNDmYx2iGcgmjt5Hm5wT-40">
          <mxGeometry relative="1" as="geometry">
            <mxPoint x="-120" y="720" as="targetPoint" />
          </mxGeometry>
        </mxCell>
        <mxCell id="hNDmYx2iGcgmjt5Hm5wT-37" value="Break the message&lt;br&gt;in to two from &#39;|&#39; Separator" style="rounded=0;whiteSpace=wrap;html=1;" vertex="1" parent="1">
          <mxGeometry x="-393" y="690" width="120" height="60" as="geometry" />
        </mxCell>
        <mxCell id="hNDmYx2iGcgmjt5Hm5wT-41" style="edgeStyle=orthogonalEdgeStyle;rounded=0;orthogonalLoop=1;jettySize=auto;html=1;entryX=0;entryY=0.5;entryDx=0;entryDy=0;" edge="1" parent="1" source="hNDmYx2iGcgmjt5Hm5wT-40" target="hNDmYx2iGcgmjt5Hm5wT-42">
          <mxGeometry relative="1" as="geometry">
            <mxPoint x="-30" y="730" as="targetPoint" />
          </mxGeometry>
        </mxCell>
        <mxCell id="hNDmYx2iGcgmjt5Hm5wT-40" value="Read the private key and create a PKCS1_OAEP object" style="rounded=0;whiteSpace=wrap;html=1;" vertex="1" parent="1">
          <mxGeometry x="-170" y="690" width="120" height="60" as="geometry" />
        </mxCell>
        <mxCell id="hNDmYx2iGcgmjt5Hm5wT-46" style="edgeStyle=orthogonalEdgeStyle;rounded=0;orthogonalLoop=1;jettySize=auto;html=1;" edge="1" parent="1" source="hNDmYx2iGcgmjt5Hm5wT-42" target="hNDmYx2iGcgmjt5Hm5wT-45">
          <mxGeometry relative="1" as="geometry" />
        </mxCell>
        <mxCell id="hNDmYx2iGcgmjt5Hm5wT-42" value="Base64 decode the key part of the message and decrypt using the private key and the PKCS1_OAEP object" style="whiteSpace=wrap;html=1;" vertex="1" parent="1">
          <mxGeometry x="40" y="675" width="143" height="90" as="geometry" />
        </mxCell>
        <mxCell id="hNDmYx2iGcgmjt5Hm5wT-49" style="edgeStyle=orthogonalEdgeStyle;rounded=0;orthogonalLoop=1;jettySize=auto;html=1;" edge="1" parent="1" source="hNDmYx2iGcgmjt5Hm5wT-44">
          <mxGeometry relative="1" as="geometry">
            <mxPoint x="-330" y="460" as="targetPoint" />
            <Array as="points">
              <mxPoint x="290" y="460" />
            </Array>
          </mxGeometry>
        </mxCell>
        <mxCell id="hNDmYx2iGcgmjt5Hm5wT-44" value="Base64 decode the data part of the Message and Decrypt using the Fernet Object" style="rounded=1;whiteSpace=wrap;html=1;arcSize=0;" vertex="1" parent="1">
          <mxGeometry x="225" y="490" width="130" height="80" as="geometry" />
        </mxCell>
        <mxCell id="hNDmYx2iGcgmjt5Hm5wT-48" style="edgeStyle=orthogonalEdgeStyle;rounded=0;orthogonalLoop=1;jettySize=auto;html=1;exitX=0.5;exitY=0;exitDx=0;exitDy=0;entryX=0.5;entryY=1;entryDx=0;entryDy=0;" edge="1" parent="1" source="hNDmYx2iGcgmjt5Hm5wT-45" target="hNDmYx2iGcgmjt5Hm5wT-44">
          <mxGeometry relative="1" as="geometry" />
        </mxCell>
        <mxCell id="hNDmYx2iGcgmjt5Hm5wT-45" value="Create a Fernet Object from obtained Symmetric key" style="rounded=0;whiteSpace=wrap;html=1;" vertex="1" parent="1">
          <mxGeometry x="230" y="610" width="120" height="60" as="geometry" />
        </mxCell>
      </root>
    </mxGraphModel>
  </diagram>
</mxfile>
